<svg xmlns="http://www.w3.org/2000/svg" viewBox="0 0 3 2">
  <path fill="#FF9933" d="M0 0h3v1H0z"/>

  <path fill="#FFFFFF" d="M0 0.7h3v1H0z"/>

  <path fill="#138808" d="M0 1.4h3v1H0z"/>

  <circle cx="1.5" cy="1.048" r="0.35" fill="#000080"/>
  <path fill="#000080" d="M1.46,0.89l-0.2,0.12l0.05,0.12l0.2,-0.12l-0.05,-0.12z"/>

  <path fill="#000080" d="M1.5,1l0.4,0"/>
  <path fill="#000080" d="M1.5,1l0.35,0.15"/>
  <path fill="#000080" d="M1.5,1l0.3,0.3"/>
  <path fill="#000080" d="M1.5,1l0.2,0.4"/>
  <path fill="#000080" d="M1.5,1l0.1,0.45"/>
  <path fill="#000080" d="M1.5,1l0,0.5"/>
  <path fill="#000080" d="M1.5,1l-0.1,0.45"/>
  <path fill="#000080" d="M1.5,1l-0.2,0.4"/>
  <path fill="#000080" d="M1.5,1l-0.3,0.3"/>
  <path fill="#000080" d="M1.5,1l-0.35,0.15"/>
  <path fill="#000080" d="M1.5,1l-0.4,0"/>
  <path fill="#000080" d="M1.5,1l-0.35,-0.15"/>
  <path fill="#000080" d="M1.5,1l-0.3,-0.3"/>
  <path fill="#000080" d="M1.5,1l-0.2,-0.4"/>
  <path fill="#000080" d="M1.5,1l-0.1,-0.45"/>
  <path fill="#000080" d="M1.5,1l0,-0.5"/>
  <path fill="#000080" d="M1.5,1l0.1,-0.45"/>
  <path fill="#000080" d="M1.5,1l0.2,-0.4"/>
  <path fill="#000080" d="M1.5,1l0.3,-0.3"/>
  <path fill="#000080" d="M1.5,1l0.35,-0.15"/>
</svg>
